<?xml version="1.0" encoding="utf-8"?>
<!-- Generator: Adobe Illustrator 25.0.0, SVG Export Plug-In . SVG Version: 6.00 Build 0)  -->
<svg version="1.1" id="Layer_1" xmlns="http://www.w3.org/2000/svg" xmlns:xlink="http://www.w3.org/1999/xlink" x="0px" y="0px"
	 viewBox="0 0 800 800" style="enable-background:new 0 0 800 800;" xml:space="preserve">
<style type="text/css">
	.st0{fill:#D7143A;}
	.st1{fill:#FFFFFF;}
</style>
<circle class="st0" cx="400" cy="400" r="400"/>
<path class="st1" d="M580,154.2c-42.6-40.9-101.5-63.4-165.9-63.4c-98.4,0-158.9,40.3-192.3,74.1c-41.2,41.7-64.8,97-64.8,151.8
	c0,68.8,28.8,121.7,77,141.3c3.2,1.3,6.5,2,9.7,2c10.2,0,18.2-6.7,21-17.3c1.6-6.1,5.4-21.2,7-27.8c3.5-13,0.7-19.2-7-28.2
	c-13.9-16.5-20.4-36-20.4-61.4c0-75.4,56.2-155.6,160.3-155.6c82.6,0,133.9,46.9,133.9,122.5c0,47.7-10.3,91.8-28.9,124.3
	c-13,22.6-35.8,49.5-70.8,49.5c-15.1,0-28.7-6.2-37.3-17.1c-8.1-10.2-10.8-23.5-7.5-37.3c3.7-15.6,8.7-31.8,13.6-47.6
	c8.9-28.7,17.2-55.8,17.2-77.4c0-37-22.7-61.9-56.6-61.9c-43,0-76.7,43.7-76.7,99.5c0,27.4,7.3,47.8,10.6,55.7
	c-5.4,23-37.6,159.5-43.7,185.2c-3.5,15-24.8,133.7,10.4,143.2c39.6,10.6,74.9-104.9,78.5-118c2.9-10.6,13.1-50.8,19.4-75.5
	c19.1,18.4,49.9,30.8,79.8,30.8c56.4,0,107.2-25.4,142.9-71.5c34.6-44.7,53.7-107,53.7-175.5C643,245.4,620,192.6,580,154.2z"/>
</svg>
