<?xml version="1.0" encoding="utf-8"?>
<!-- Generator: Adobe Illustrator 25.0.0, SVG Export Plug-In . SVG Version: 6.00 Build 0)  -->
<svg version="1.1" id="Layer_1" xmlns="http://www.w3.org/2000/svg" xmlns:xlink="http://www.w3.org/1999/xlink" x="0px" y="0px"
	 viewBox="0 0 40 40" style="enable-background:new 0 0 40 40;" xml:space="preserve">
<style type="text/css">
	.st0{fill:#E41321;}
	.st1{fill:#FFFFFF;}
</style>
<path class="st0" d="M27.7,27.2h-5.3c-0.3,0-0.5-0.2-0.5-0.5V13.3c0-0.3,0.2-0.5,0.5-0.5h4.9c3.7,0,4.5,2.2,4.5,4
	c0,1.1-0.3,1.9-0.8,2.5c1.4,0.6,2.1,1.8,2.1,3.7C33.1,25.6,31.1,27.2,27.7,27.2 M20,27.2H8.9c-0.3,0-0.5-0.2-0.5-0.5l0,0V13.3
	c0-0.3,0.2-0.5,0.5-0.5h5.2c3.2,0,5.2,1.7,5.2,4.7c0,1.9-1,3.5-2.5,4.1l3.7,4.8c0.2,0.2,0.2,0.6-0.1,0.8
	C20.2,27.2,20.1,27.2,20,27.2 M20,0C9,0,0,9,0,20s8.9,20,20,20s20-8.9,20-20S31,0,20,0"/>
<g>
	<path class="st1" d="M27.3,12.8h-4.9c-0.3,0-0.5,0.2-0.5,0.5v13.4c0,0.3,0.2,0.5,0.5,0.5h5.3c3.4,0,5.4-1.6,5.4-4.2
		c0-1.9-0.7-3.1-2.1-3.7c0.5-0.6,0.8-1.4,0.8-2.5C31.8,15,31,12.8,27.3,12.8z"/>
	<path class="st1" d="M19.3,17.5c0-3-2-4.7-5.2-4.7H8.9c-0.3,0-0.5,0.2-0.5,0.5v13.4c0,0.3,0.2,0.5,0.5,0.5H20c0.1,0,0.2,0,0.4,0
		c0.3-0.2,0.3-0.6,0.1-0.8l-3.7-4.8C18.3,21,19.3,19.4,19.3,17.5z"/>
</g>
</svg>
